<?xml version="1.0" encoding="iso-8859-1"?>
<!-- Uploaded to: SVG Repo, www.svgrepo.com, Generator: SVG Repo Mixer Tools -->
<svg height="800px" width="800px" version="1.1" id="Capa_1" xmlns="http://www.w3.org/2000/svg" xmlns:xlink="http://www.w3.org/1999/xlink" 
	 viewBox="0 0 57.33 57.33" xml:space="preserve">
<g>
	<g>
		<path style="fill:#010002;" d="M9.559,14.749v35.402c0,3.958,3.221,7.179,7.179,7.179h23.854c3.958,0,7.179-3.221,7.179-7.179
			V14.749c0-3.958-3.204-7.179-7.141-7.179c-0.878,0-1.523-0.032-1.992-0.075c0.208-0.491,0.315-1.005,0.315-1.524
			C38.953,2.567,34.53,0,28.665,0S18.377,2.566,18.377,5.971c0,0.519,0.107,1.033,0.315,1.524C18.223,7.538,17.578,7.57,16.7,7.57
			C12.763,7.57,9.559,10.791,9.559,14.749z M44.771,14.749v35.402c0,2.304-1.875,4.179-4.179,4.179H16.738
			c-2.304,0-4.179-1.875-4.179-4.179V14.749c0-2.304,1.858-4.179,4.141-4.179c0.13,0,0.237-0.005,0.362-0.006
			c-0.476,0.783-0.547,1.67-0.144,2.488c0.786,1.595,3.224,2.625,6.21,2.625h11.577c2.987,0,5.425-1.03,6.211-2.625
			c0.399-0.811,0.332-1.688-0.131-2.467C42.994,10.67,44.771,12.498,44.771,14.749z M28.665,3c4.449,0,7.288,1.76,7.288,2.971
			c0,0.267-0.14,0.555-0.414,0.857c-0.575,0.633-0.733,1.429-0.423,2.128c0.199,0.449,0.529,0.789,1.052,1.038
			c0.154,0.127,1.07,0.892,1.882,1.892c-0.447,0.32-1.618,0.792-3.346,0.792H23.128c-1.728,0-2.899-0.472-3.345-0.793
			c0.88-1.084,1.903-1.908,1.914-1.917c0.365-0.292,0.55-0.721,0.556-1.154c0.231-0.664,0.075-1.395-0.461-1.984
			c-0.275-0.304-0.415-0.592-0.415-0.858C21.377,4.76,24.216,3,28.665,3z"/>
		<ellipse style="fill:#010002;" cx="28.665" cy="6.283" rx="5.467" ry="1.89"/>
		<path style="fill:#010002;" d="M40.836,22.222c-0.715-0.415-1.634-0.174-2.051,0.542l-2.333,4.01
			c-0.116,0.2-0.42,0.661-0.744,0.661c-0.003,0-0.004,0-0.007,0c-0.373-0.007-1.041-0.514-1.623-1.61
			c-0.967-1.819-2.383-2.839-3.989-2.871c-1.612-0.009-3.151,0.995-4.214,2.819c-0.959,1.645-1.874,2.489-2.337,2.768
			c-1.409-1.202-3.667-1.157-5.253,0.172l-2,1.677c-0.635,0.532-0.718,1.479-0.185,2.113c0.297,0.354,0.722,0.536,1.15,0.536
			c0.34,0,0.682-0.115,0.963-0.351l1.999-1.677c0.507-0.427,1.168-0.429,1.419-0.149c0.51,0.57,1.223,0.844,2.008,0.761
			c2.203-0.223,4.109-3.108,4.828-4.338c0.492-0.843,1.081-1.304,1.564-1.331c0.455,0.009,0.978,0.487,1.399,1.279
			c1.065,2.004,2.602,3.171,4.215,3.202c1.396,0.021,2.578-0.738,3.401-2.151l2.333-4.01C41.794,23.557,41.552,22.639,40.836,22.222
			z"/>
		<path style="fill:#010002;" d="M40.836,37.497c-0.715-0.415-1.634-0.174-2.051,0.542l-2.333,4.01
			c-0.116,0.2-0.42,0.661-0.744,0.661c-0.003,0-0.004,0-0.007,0c-0.373-0.007-1.041-0.514-1.623-1.61
			c-0.967-1.819-2.383-2.839-3.989-2.871c-1.612,0.005-3.151,0.995-4.214,2.819c-0.959,1.645-1.874,2.489-2.337,2.768
			c-1.409-1.202-3.667-1.158-5.253,0.172l-2,1.677c-0.635,0.532-0.718,1.479-0.185,2.113c0.297,0.354,0.722,0.536,1.15,0.536
			c0.34,0,0.682-0.115,0.963-0.351l1.999-1.677c0.507-0.426,1.168-0.429,1.419-0.149c0.51,0.57,1.223,0.844,2.008,0.761
			c2.203-0.223,4.109-3.107,4.828-4.338c0.487-0.835,1.065-1.331,1.55-1.331c0.005,0,0.009,0,0.014,0
			c0.455,0.009,0.978,0.487,1.399,1.279c1.065,2.004,2.602,3.171,4.215,3.202c1.396-0.004,2.578-0.738,3.401-2.151l2.333-4.01
			C41.794,38.832,41.552,37.914,40.836,37.497z"/>
	</g>
</g>
</svg>